<?xml version="1.0" standalone="no"?>
<!DOCTYPE svg PUBLIC "-//W3C//DTD SVG 20010904//EN"
 "http://www.w3.org/TR/2001/REC-SVG-20010904/DTD/svg10.dtd">
<svg version="1.0" xmlns="http://www.w3.org/2000/svg"
 width="282.000000pt" height="223.000000pt" viewBox="0 0 282.000000 223.000000"
 preserveAspectRatio="xMidYMid meet">

<g transform="translate(0.000000,223.000000) scale(0.100000,-0.100000)"
fill="#000000" stroke="none">
<path d="M2536 2160 c-5 -25 -19 -68 -32 -97 -26 -54 -55 -73 -137 -88 -57
-11 -53 -22 10 -35 99 -20 133 -61 158 -188 8 -40 25 -32 25 12 0 46 46 134
81 151 15 8 51 20 79 26 27 6 48 14 46 18 -3 4 -30 13 -61 20 -37 8 -66 23
-88 44 -30 30 -40 51 -65 147 l-9 35 -7 -45z"/>
<path d="M2135 1944 c-27 -8 -66 -19 -85 -24 -373 -103 -867 -309 -1270 -530
-63 -34 -140 -76 -171 -93 -30 -16 -66 -38 -80 -48 -13 -10 77 32 201 94 124
62 290 141 370 176 80 35 168 74 195 87 144 64 513 200 785 289 80 26 149 51
155 56 14 13 -42 9 -100 -7z"/>
<path d="M2240 1810 c-155 -30 -343 -84 -505 -146 -38 -14 -87 -33 -107 -40
-306 -112 -791 -354 -1068 -532 -101 -65 -340 -239 -390 -283 -38 -33 -45 -37
172 104 47 32 89 57 92 57 3 0 29 15 58 34 124 78 436 239 593 306 44 18 84
37 90 42 12 11 25 10 25 -1 0 -5 -10 -13 -21 -16 -22 -7 -330 -183 -339 -194
-3 -3 -32 -24 -65 -45 -228 -149 -474 -366 -576 -510 -64 -90 -90 -162 -91
-248 0 -59 4 -75 28 -115 36 -58 106 -107 192 -134 143 -44 395 -48 612 -8
176 32 185 37 60 32 -137 -6 -250 12 -336 54 -192 93 -216 251 -71 453 58 81
238 254 377 361 125 96 376 268 465 318 28 15 101 58 164 94 62 37 115 67 116
67 1 0 40 21 86 46 46 26 185 99 309 162 124 63 237 121 252 129 71 37 28 42
-122 13z m-995 -440 c-3 -5 -12 -10 -18 -10 -7 0 -6 4 3 10 19 12 23 12 15 0z
m-974 -917 c-25 -90 -3 -171 63 -236 54 -52 166 -101 258 -113 27 -4 48 -10
48 -13 0 -12 -141 9 -203 30 -79 27 -131 63 -167 117 -25 38 -30 56 -30 105 0
33 8 81 17 108 20 56 29 58 14 2z"/>
<path d="M2345 1613 c-44 -25 -102 -58 -130 -73 -27 -15 -75 -42 -105 -59 -30
-18 -65 -37 -77 -43 -24 -12 -39 -45 -99 -223 -19 -55 -39 -109 -43 -120 -5
-11 -23 -60 -40 -110 -67 -197 -82 -230 -141 -310 -73 -97 -176 -178 -317
-249 -131 -67 -222 -95 -375 -116 -49 -7 -88 -16 -88 -22 0 -19 29 -64 62 -95
37 -35 119 -63 185 -63 56 0 212 34 305 66 295 103 503 275 625 519 29 57 328
933 321 940 -2 2 -39 -17 -83 -42z"/>
</g>
</svg>
